<svg xmlns="http://www.w3.org/2000/svg" viewBox="0 0 128 128">
  <defs>
    <!-- Warm sunset gradient background -->
    <linearGradient id="bgGradient128" x1="0%" y1="0%" x2="100%" y2="100%">
      <stop offset="0%" stop-color="#FF9500"/>
      <stop offset="50%" stop-color="#FFAB40"/>
      <stop offset="100%" stop-color="#FFD60A"/>
    </linearGradient>

    <!-- Subtle inner shadow for depth -->
    <filter id="innerGlow128" x="-10%" y="-10%" width="120%" height="120%">
      <feGaussianBlur in="SourceAlpha" stdDeviation="4" result="blur"/>
      <feOffset dx="0" dy="2"/>
      <feComposite in2="SourceAlpha" operator="arithmetic" k2="-1" k3="1"/>
      <feColorMatrix values="0 0 0 0 0  0 0 0 0 0  0 0 0 0 0  0 0 0 0.15 0"/>
      <feBlend in2="SourceGraphic"/>
    </filter>

    <!-- Flower shadow -->
    <filter id="flowerShadow128" x="-20%" y="-20%" width="140%" height="140%">
      <feDropShadow dx="0" dy="2" stdDeviation="3" flood-color="#000" flood-opacity="0.2"/>
    </filter>

    <!-- Golden center gradient -->
    <radialGradient id="centerGold128" cx="50%" cy="40%" r="60%">
      <stop offset="0%" stop-color="#FFF8E7"/>
      <stop offset="50%" stop-color="#FFD700"/>
      <stop offset="100%" stop-color="#F5A623"/>
    </radialGradient>
  </defs>

  <!-- Squircle background -->
  <rect x="4" y="4" width="120" height="120" rx="28" ry="28" fill="url(#bgGradient128)"/>

  <!-- Subtle highlight on top-left -->
  <ellipse cx="35" cy="35" rx="30" ry="25" fill="white" opacity="0.15"/>

  <!-- Tab shape at bottom (the "pot" the flower grows from) -->
  <g filter="url(#flowerShadow128)">
    <!-- Tab base - stylized browser tab silhouette -->
    <path d="M44 95
             Q44 88 50 85
             L54 85
             Q58 85 60 82
             L60 78
             Q60 74 64 74
             Q68 74 68 78
             L68 82
             Q70 85 74 85
             L78 85
             Q84 88 84 95
             Z"
          fill="white"
          opacity="0.95"/>
  </g>

  <!-- Stem growing from tab -->
  <path d="M64 78 Q64 65 64 55"
        stroke="white"
        stroke-width="4"
        stroke-linecap="round"
        fill="none"
        opacity="0.9"/>

  <!-- The blooming flower -->
  <g transform="translate(64, 48)" filter="url(#flowerShadow128)">
    <!-- 5 petals - organic, slightly irregular for natural feel -->

    <!-- Petal 1 - top -->
    <ellipse cx="0" cy="-22" rx="12" ry="18" fill="white" transform="rotate(0)"/>

    <!-- Petal 2 - top right -->
    <ellipse cx="0" cy="-20" rx="11" ry="17" fill="white" transform="rotate(72)" opacity="0.95"/>

    <!-- Petal 3 - bottom right -->
    <ellipse cx="0" cy="-19" rx="11" ry="16" fill="white" transform="rotate(144)" opacity="0.92"/>

    <!-- Petal 4 - bottom left -->
    <ellipse cx="0" cy="-19" rx="11" ry="16" fill="white" transform="rotate(216)" opacity="0.92"/>

    <!-- Petal 5 - top left -->
    <ellipse cx="0" cy="-20" rx="11" ry="17" fill="white" transform="rotate(288)" opacity="0.95"/>

    <!-- Inner petal highlights for depth -->
    <ellipse cx="0" cy="-18" rx="7" ry="12" fill="white" transform="rotate(36)" opacity="0.6"/>
    <ellipse cx="0" cy="-18" rx="7" ry="12" fill="white" transform="rotate(108)" opacity="0.5"/>
    <ellipse cx="0" cy="-18" rx="7" ry="12" fill="white" transform="rotate(180)" opacity="0.5"/>
    <ellipse cx="0" cy="-18" rx="7" ry="12" fill="white" transform="rotate(252)" opacity="0.5"/>
    <ellipse cx="0" cy="-18" rx="7" ry="12" fill="white" transform="rotate(324)" opacity="0.6"/>

    <!-- Golden center -->
    <circle cx="0" cy="0" r="10" fill="url(#centerGold128)"/>

    <!-- Center texture dots -->
    <circle cx="-3" cy="-3" r="1.5" fill="#F5A623" opacity="0.6"/>
    <circle cx="3" cy="-2" r="1.5" fill="#F5A623" opacity="0.5"/>
    <circle cx="0" cy="3" r="1.5" fill="#F5A623" opacity="0.6"/>
    <circle cx="-4" cy="2" r="1" fill="#F5A623" opacity="0.4"/>
    <circle cx="4" cy="3" r="1" fill="#F5A623" opacity="0.4"/>

    <!-- Center highlight -->
    <circle cx="-2" cy="-3" r="3" fill="white" opacity="0.5"/>
  </g>

  <!-- Small decorative leaves near stem -->
  <ellipse cx="56" cy="70" rx="6" ry="3" fill="white" opacity="0.7" transform="rotate(-30 56 70)"/>
  <ellipse cx="72" cy="68" rx="5" ry="2.5" fill="white" opacity="0.6" transform="rotate(25 72 68)"/>
</svg>
