<svg xmlns="http://www.w3.org/2000/svg" viewBox="0 0 48 48">
  <defs>
    <linearGradient id="bg48" x1="0%" y1="0%" x2="100%" y2="100%">
      <stop offset="0%" stop-color="#00B894"/>
      <stop offset="100%" stop-color="#00D9A5"/>
    </linearGradient>
  </defs>

  <!-- Background -->
  <rect x="2" y="2" width="44" height="44" rx="10" fill="url(#bg48)"/>

  <!-- Lily outline -->
  <g transform="translate(24, 26)" fill="none" stroke="white" stroke-width="2" stroke-linecap="round" stroke-linejoin="round">
    <!-- 6 petals -->
    <path d="M0 0 C-1.5 -4.5, -2.3 -10.5, -0.6 -15 Q0 -16.5, 0.6 -15 C2.3 -10.5, 1.5 -4.5, 0 0" transform="rotate(0)"/>
    <path d="M0 0 C-1.5 -4.5, -2.3 -10.5, -0.6 -15 Q0 -16.5, 0.6 -15 C2.3 -10.5, 1.5 -4.5, 0 0" transform="rotate(60)"/>
    <path d="M0 0 C-1.5 -4.5, -2.3 -10.5, -0.6 -15 Q0 -16.5, 0.6 -15 C2.3 -10.5, 1.5 -4.5, 0 0" transform="rotate(120)"/>
    <path d="M0 0 C-1.5 -4.5, -2.3 -10.5, -0.6 -15 Q0 -16.5, 0.6 -15 C2.3 -10.5, 1.5 -4.5, 0 0" transform="rotate(180)"/>
    <path d="M0 0 C-1.5 -4.5, -2.3 -10.5, -0.6 -15 Q0 -16.5, 0.6 -15 C2.3 -10.5, 1.5 -4.5, 0 0" transform="rotate(240)"/>
    <path d="M0 0 C-1.5 -4.5, -2.3 -10.5, -0.6 -15 Q0 -16.5, 0.6 -15 C2.3 -10.5, 1.5 -4.5, 0 0" transform="rotate(300)"/>

    <!-- Center dot -->
    <circle cx="0" cy="0" r="3" fill="white" stroke="none"/>
  </g>
</svg>
