<svg xmlns="http://www.w3.org/2000/svg" viewBox="0 0 320 80">
  <defs>
    <!-- Warm sunset gradient -->
    <linearGradient id="bgGradientWM" x1="0%" y1="0%" x2="100%" y2="100%">
      <stop offset="0%" stop-color="#FF9500"/>
      <stop offset="50%" stop-color="#FFAB40"/>
      <stop offset="100%" stop-color="#FFD60A"/>
    </linearGradient>

    <!-- Golden center -->
    <radialGradient id="centerGoldWM" cx="50%" cy="40%" r="60%">
      <stop offset="0%" stop-color="#FFF8E7"/>
      <stop offset="100%" stop-color="#FFD700"/>
    </radialGradient>

    <!-- Text gradient - warm to match icon -->
    <linearGradient id="textGradientWM" x1="0%" y1="0%" x2="100%" y2="0%">
      <stop offset="0%" stop-color="#3D3226"/>
      <stop offset="100%" stop-color="#5D4E3E"/>
    </linearGradient>

    <!-- Bloom accent - matches icon orange -->
    <linearGradient id="bloomAccentWM" x1="0%" y1="0%" x2="100%" y2="0%">
      <stop offset="0%" stop-color="#FF9500"/>
      <stop offset="100%" stop-color="#FFAB40"/>
    </linearGradient>
  </defs>

  <!-- Icon (scaled down version) -->
  <g transform="translate(8, 8)">
    <!-- Squircle background -->
    <rect x="0" y="0" width="64" height="64" rx="14" ry="14" fill="url(#bgGradientWM)"/>

    <!-- Highlight -->
    <ellipse cx="18" cy="18" rx="14" ry="12" fill="white" opacity="0.15"/>

    <!-- Tab base -->
    <path d="M22 50 Q22 46 25 45 L27 45 Q29 45 30 43.5 L30 42 Q30 40 32 40 Q34 40 34 42 L34 43.5 Q35 45 37 45 L39 45 Q42 46 42 50 Z"
          fill="white" opacity="0.95"/>

    <!-- Stem -->
    <line x1="32" y1="42" x2="32" y2="30" stroke="white" stroke-width="2.5" stroke-linecap="round" opacity="0.9"/>

    <!-- 5-petal flower -->
    <g transform="translate(32, 26)">
      <ellipse cx="0" cy="-11" rx="6" ry="9" fill="white" transform="rotate(0)"/>
      <ellipse cx="0" cy="-10" rx="5.5" ry="8.5" fill="white" transform="rotate(72)" opacity="0.95"/>
      <ellipse cx="0" cy="-9.5" rx="5.5" ry="8" fill="white" transform="rotate(144)" opacity="0.92"/>
      <ellipse cx="0" cy="-9.5" rx="5.5" ry="8" fill="white" transform="rotate(216)" opacity="0.92"/>
      <ellipse cx="0" cy="-10" rx="5.5" ry="8.5" fill="white" transform="rotate(288)" opacity="0.95"/>

      <!-- Golden center -->
      <circle cx="0" cy="0" r="5" fill="url(#centerGoldWM)"/>
      <circle cx="-1" cy="-1.5" r="1.5" fill="white" opacity="0.5"/>
    </g>

    <!-- Tiny leaves -->
    <ellipse cx="28" cy="37" rx="3" ry="1.5" fill="white" opacity="0.7" transform="rotate(-30 28 37)"/>
    <ellipse cx="36" cy="36" rx="2.5" ry="1.3" fill="white" opacity="0.6" transform="rotate(25 36 36)"/>
  </g>

  <!-- Text: TabBloom -->
  <text x="88" y="52" font-family="system-ui, -apple-system, BlinkMacSystemFont, 'Segoe UI', Roboto, sans-serif" font-size="36" font-weight="600" fill="url(#textGradientWM)">
    <tspan>Tab</tspan><tspan fill="url(#bloomAccentWM)">Bloom</tspan>
  </text>
</svg>
