<svg xmlns="http://www.w3.org/2000/svg" viewBox="0 0 128 128">
  <defs>
    <!-- Fresh teal-to-green gradient -->
    <linearGradient id="bgLogo" x1="0%" y1="0%" x2="100%" y2="100%">
      <stop offset="0%" stop-color="#00B894"/>
      <stop offset="100%" stop-color="#00D9A5"/>
    </linearGradient>

    <!-- Golden center -->
    <radialGradient id="goldLogo" cx="50%" cy="35%" r="65%">
      <stop offset="0%" stop-color="#FFF8E1"/>
      <stop offset="50%" stop-color="#FFD54F"/>
      <stop offset="100%" stop-color="#FFB300"/>
    </radialGradient>

    <!-- Shadow -->
    <filter id="shadowLogo">
      <feDropShadow dx="0" dy="2" stdDeviation="2" flood-color="#000" flood-opacity="0.15"/>
    </filter>
  </defs>

  <!-- Squircle background -->
  <rect x="4" y="4" width="120" height="120" rx="27" ry="27" fill="url(#bgLogo)"/>

  <!-- Highlight -->
  <ellipse cx="38" cy="38" rx="28" ry="22" fill="white" opacity="0.12"/>

  <!-- 5 tab-shaped petals as flower -->
  <g transform="translate(64, 62)" filter="url(#shadowLogo)">
    <path d="M-12 -20 Q-12 -44 0 -50 Q12 -44 12 -20 L8 -8 Q0 -4 -8 -8 Z"
          fill="white" transform="rotate(0)"/>
    <path d="M-11 -19 Q-11 -42 0 -48 Q11 -42 11 -19 L7 -8 Q0 -4 -7 -8 Z"
          fill="white" opacity="0.95" transform="rotate(72)"/>
    <path d="M-11 -18 Q-11 -40 0 -46 Q11 -40 11 -18 L7 -7 Q0 -3 -7 -7 Z"
          fill="white" opacity="0.9" transform="rotate(144)"/>
    <path d="M-11 -18 Q-11 -40 0 -46 Q11 -40 11 -18 L7 -7 Q0 -3 -7 -7 Z"
          fill="white" opacity="0.9" transform="rotate(216)"/>
    <path d="M-11 -19 Q-11 -42 0 -48 Q11 -42 11 -19 L7 -8 Q0 -4 -7 -8 Z"
          fill="white" opacity="0.95" transform="rotate(288)"/>

    <!-- Golden center -->
    <circle cx="0" cy="0" r="14" fill="url(#goldLogo)"/>
    <circle cx="-4" cy="-4" r="2" fill="#FFB300" opacity="0.5"/>
    <circle cx="4" cy="-3" r="2" fill="#FFB300" opacity="0.4"/>
    <circle cx="0" cy="5" r="2" fill="#FFB300" opacity="0.5"/>
    <circle cx="-3" cy="-4" r="4" fill="white" opacity="0.45"/>
  </g>
</svg>
